<svg xmlns="http://www.w3.org/2000/svg" viewBox="0 0 49.82 49.9">
  <defs>
    <style>
      .cls-1, .cls-4 {
        fill: none;
        stroke-linecap: round;
        stroke-linejoin: round;
      }

      .cls-1 {
        stroke: #000;
        stroke-width: 2px;
      }

      .cls-2 {
        fill: #888;
      }

      .cls-3 {
        fill: #333;
      }

      .cls-4 {
        stroke: #333;
        stroke-width: 0.5px;
      }
    </style>
  </defs>
  <title>Icon_Archive</title>
  <g id="Layer_1" data-name="Layer 1">
    <g>
      <path class="cls-1" d="M29.49,1,8.38,7.85c-9.31.49-7.17,6-7.17,6S14.6,40.09,16.43,44.31c.8,1.86,3.29,8.44,11.63,1.43"/>
      <path class="cls-1" d="M28.06,45.74,48.82,38a11,11,0,0,1-.72-7.51c-3.76-6.09-7.69-11.63-7.69-11.63l-.18-7.7L29.49,1"/>
    </g>
  </g>
  <g id="Layer_4" data-name="Layer 4">
    <path class="cls-2" d="M25.68,40.45c-3.33-1.41-4.9.41-5.45,1.35-.38.65-.22,2.29.47,3.8,0,0,2.1,1.36,5-2,4.17-1.67,18-7.27,18-7.27A5,5,0,0,1,43.43,33"/>
  </g>
  <g id="Layer_2" data-name="Layer 2">
    <g>
      <path class="cls-3" d="M10,11.65l7.07,12.24C18.29,25.94,19.51,28,20.6,30s2.18,4.19,3.13,6.35c0,0,0,0,0,0s0,0-.05,0c-1.32-2-2.51-4-3.71-6s-2.25-4.14-3.36-6.22L10,11.68s0,0,0,0A0,0,0,0,1,10,11.65Z"/>
      <line class="cls-4" x1="30.44" y1="11.35" x2="18.17" y2="12.17"/>
      <line class="cls-4" x1="31.48" y1="19.36" x2="16.85" y2="13.5"/>
      <line class="cls-4" x1="28.06" y1="28.17" x2="16.05" y2="14.63"/>
      <path class="cls-4" d="M43.67,32.67l-18,7.66s-4-1.56-5.5,1.84c-.59,1.33.68,3.22.68,3.22"/>
      <path class="cls-3" d="M15.93,9.69a2.63,2.63,0,0,0-2.62,2.63h0a2.62,2.62,0,0,0,5.24,0h0a2.63,2.63,0,0,0-2.62-2.63Z"/>
      <path class="cls-4" d="M28.06,28.17c6.2-9.67,3.8-18.48-3.22-23.84l-8,6.17"/>
    </g>
  </g>
  <g id="Layer_3" data-name="Layer 3">
    <path class="cls-2" d="M30.34,32.67l1.5.83-.42,3.92-1.61.72-4.14-2.85,1.75-2.62S26.05,29.79,31.34,25s5.33-12.33-.58-18.75a13.25,13.25,0,0,1,6.41,13.33l7,10.17-6.08,2.92s-1.75-1.25-.25-1.75c1.17-1.84,2.67-4.34,2.67-4.34l-2.07-3.21s-1.6.38-1.52-.95a16.12,16.12,0,0,1-3.66,4.33c-2.67,2.33-3.42,3.42-2.92,5.92"/>
  </g>
</svg>
